<mxfile host="app.diagrams.net" agent="Mozilla/5.0 (Windows NT 10.0; Win64; x64) AppleWebKit/537.36 (KHTML, like Gecko) Chrome/131.0.0.0 Safari/537.36" version="26.0.2">
  <diagram name="第 1 页" id="zafBZnreeazUvQEPC57R">
    <mxGraphModel dx="1034" dy="446" grid="1" gridSize="10" guides="1" tooltips="1" connect="1" arrows="1" fold="1" page="1" pageScale="1" pageWidth="827" pageHeight="1169" math="0" shadow="0">
      <root>
        <mxCell id="0" />
        <mxCell id="1" parent="0" />
        <mxCell id="Uf12T6POXvxRdNKF46h6-2" style="edgeStyle=orthogonalEdgeStyle;rounded=0;orthogonalLoop=1;jettySize=auto;html=1;exitX=0.5;exitY=1;exitDx=0;exitDy=0;" parent="1" source="Uf12T6POXvxRdNKF46h6-1" target="Uf12T6POXvxRdNKF46h6-3" edge="1">
          <mxGeometry relative="1" as="geometry">
            <mxPoint x="290" y="110" as="targetPoint" />
          </mxGeometry>
        </mxCell>
        <mxCell id="Uf12T6POXvxRdNKF46h6-1" value="登录" style="ellipse;whiteSpace=wrap;html=1;" parent="1" vertex="1">
          <mxGeometry x="250" y="40" width="80" height="40" as="geometry" />
        </mxCell>
        <mxCell id="Uf12T6POXvxRdNKF46h6-4" style="edgeStyle=orthogonalEdgeStyle;rounded=0;orthogonalLoop=1;jettySize=auto;html=1;exitX=0.5;exitY=1;exitDx=0;exitDy=0;" parent="1" source="Uf12T6POXvxRdNKF46h6-3" target="Uf12T6POXvxRdNKF46h6-5" edge="1">
          <mxGeometry relative="1" as="geometry">
            <mxPoint x="290" y="200" as="targetPoint" />
          </mxGeometry>
        </mxCell>
        <mxCell id="Uf12T6POXvxRdNKF46h6-3" value="查看系统状态" style="rounded=0;whiteSpace=wrap;html=1;" parent="1" vertex="1">
          <mxGeometry x="245" y="110" width="90" height="40" as="geometry" />
        </mxCell>
        <mxCell id="Uf12T6POXvxRdNKF46h6-7" style="edgeStyle=orthogonalEdgeStyle;rounded=0;orthogonalLoop=1;jettySize=auto;html=1;exitX=0.5;exitY=1;exitDx=0;exitDy=0;" parent="1" source="Uf12T6POXvxRdNKF46h6-5" edge="1">
          <mxGeometry relative="1" as="geometry">
            <mxPoint x="290" y="270" as="targetPoint" />
          </mxGeometry>
        </mxCell>
        <mxCell id="Uf12T6POXvxRdNKF46h6-5" value="查看硬盘状态" style="rounded=0;whiteSpace=wrap;html=1;" parent="1" vertex="1">
          <mxGeometry x="245" y="180" width="90" height="40" as="geometry" />
        </mxCell>
        <mxCell id="Uf12T6POXvxRdNKF46h6-9" style="edgeStyle=orthogonalEdgeStyle;rounded=0;orthogonalLoop=1;jettySize=auto;html=1;exitX=1;exitY=0.5;exitDx=0;exitDy=0;" parent="1" edge="1">
          <mxGeometry relative="1" as="geometry">
            <mxPoint x="290" y="250" as="targetPoint" />
            <mxPoint x="210" y="250" as="sourcePoint" />
          </mxGeometry>
        </mxCell>
        <mxCell id="Uf12T6POXvxRdNKF46h6-10" style="edgeStyle=orthogonalEdgeStyle;rounded=0;orthogonalLoop=1;jettySize=auto;html=1;exitX=0.5;exitY=1;exitDx=0;exitDy=0;entryX=0.5;entryY=0;entryDx=0;entryDy=0;" parent="1" source="Uf12T6POXvxRdNKF46h6-8" edge="1" target="Uf12T6POXvxRdNKF46h6-11">
          <mxGeometry relative="1" as="geometry">
            <mxPoint x="290" y="340" as="targetPoint" />
          </mxGeometry>
        </mxCell>
        <mxCell id="Uf12T6POXvxRdNKF46h6-8" value="查看硬盘状态" style="rounded=0;whiteSpace=wrap;html=1;" parent="1" vertex="1">
          <mxGeometry x="245" y="270" width="90" height="40" as="geometry" />
        </mxCell>
        <mxCell id="Uf12T6POXvxRdNKF46h6-13" style="edgeStyle=orthogonalEdgeStyle;rounded=0;orthogonalLoop=1;jettySize=auto;html=1;exitX=0.5;exitY=1;exitDx=0;exitDy=0;" parent="1" source="Uf12T6POXvxRdNKF46h6-11" edge="1">
          <mxGeometry relative="1" as="geometry">
            <mxPoint x="290" y="440" as="targetPoint" />
          </mxGeometry>
        </mxCell>
        <mxCell id="Uf12T6POXvxRdNKF46h6-11" value="查看电源状态" style="rounded=0;whiteSpace=wrap;html=1;" parent="1" vertex="1">
          <mxGeometry x="245" y="350" width="90" height="40" as="geometry" />
        </mxCell>
        <mxCell id="Uf12T6POXvxRdNKF46h6-15" style="edgeStyle=orthogonalEdgeStyle;rounded=0;orthogonalLoop=1;jettySize=auto;html=1;exitX=1;exitY=0.5;exitDx=0;exitDy=0;" parent="1" source="Uf12T6POXvxRdNKF46h6-12" edge="1">
          <mxGeometry relative="1" as="geometry">
            <mxPoint x="290" y="410" as="targetPoint" />
          </mxGeometry>
        </mxCell>
        <mxCell id="Uf12T6POXvxRdNKF46h6-12" value="拔掉一个电源" style="rhombus;whiteSpace=wrap;html=1;" parent="1" vertex="1">
          <mxGeometry x="120" y="380" width="100" height="60" as="geometry" />
        </mxCell>
        <mxCell id="Uf12T6POXvxRdNKF46h6-17" style="edgeStyle=orthogonalEdgeStyle;rounded=0;orthogonalLoop=1;jettySize=auto;html=1;exitX=0.5;exitY=1;exitDx=0;exitDy=0;" parent="1" source="Uf12T6POXvxRdNKF46h6-14" edge="1">
          <mxGeometry relative="1" as="geometry">
            <mxPoint x="290" y="540" as="targetPoint" />
          </mxGeometry>
        </mxCell>
        <mxCell id="Uf12T6POXvxRdNKF46h6-14" value="查看电源状态" style="rounded=0;whiteSpace=wrap;html=1;" parent="1" vertex="1">
          <mxGeometry x="245" y="440" width="90" height="40" as="geometry" />
        </mxCell>
        <mxCell id="Uf12T6POXvxRdNKF46h6-19" style="edgeStyle=orthogonalEdgeStyle;rounded=0;orthogonalLoop=1;jettySize=auto;html=1;exitX=1;exitY=0.5;exitDx=0;exitDy=0;" parent="1" source="Uf12T6POXvxRdNKF46h6-16" edge="1">
          <mxGeometry relative="1" as="geometry">
            <mxPoint x="290" y="510" as="targetPoint" />
          </mxGeometry>
        </mxCell>
        <mxCell id="Uf12T6POXvxRdNKF46h6-16" value="拔掉两个电源" style="rhombus;whiteSpace=wrap;html=1;" parent="1" vertex="1">
          <mxGeometry x="120" y="480" width="100" height="60" as="geometry" />
        </mxCell>
        <mxCell id="Uf12T6POXvxRdNKF46h6-21" style="edgeStyle=orthogonalEdgeStyle;rounded=0;orthogonalLoop=1;jettySize=auto;html=1;exitX=0.5;exitY=1;exitDx=0;exitDy=0;entryX=1;entryY=0.5;entryDx=0;entryDy=0;" parent="1" source="Uf12T6POXvxRdNKF46h6-18" target="Uf12T6POXvxRdNKF46h6-1" edge="1">
          <mxGeometry relative="1" as="geometry">
            <Array as="points">
              <mxPoint x="290" y="640" />
              <mxPoint x="400" y="640" />
              <mxPoint x="400" y="60" />
            </Array>
          </mxGeometry>
        </mxCell>
        <mxCell id="Uf12T6POXvxRdNKF46h6-18" value="查看电源状态" style="rounded=0;whiteSpace=wrap;html=1;" parent="1" vertex="1">
          <mxGeometry x="245" y="540" width="90" height="40" as="geometry" />
        </mxCell>
        <mxCell id="Uf12T6POXvxRdNKF46h6-23" style="edgeStyle=orthogonalEdgeStyle;rounded=0;orthogonalLoop=1;jettySize=auto;html=1;exitX=1;exitY=0.5;exitDx=0;exitDy=0;" parent="1" source="Uf12T6POXvxRdNKF46h6-20" edge="1">
          <mxGeometry relative="1" as="geometry">
            <mxPoint x="290" y="615" as="targetPoint" />
          </mxGeometry>
        </mxCell>
        <mxCell id="Uf12T6POXvxRdNKF46h6-20" value="恢复电源" style="rhombus;whiteSpace=wrap;html=1;" parent="1" vertex="1">
          <mxGeometry x="120" y="585" width="100" height="60" as="geometry" />
        </mxCell>
        <mxCell id="G7eC0wwVZ_ukL-b5JIfz-1" value="拔掉一个硬盘" style="rhombus;whiteSpace=wrap;html=1;" vertex="1" parent="1">
          <mxGeometry x="120" y="220" width="100" height="60" as="geometry" />
        </mxCell>
        <mxCell id="G7eC0wwVZ_ukL-b5JIfz-4" style="edgeStyle=orthogonalEdgeStyle;rounded=0;orthogonalLoop=1;jettySize=auto;html=1;exitX=1;exitY=0.5;exitDx=0;exitDy=0;" edge="1" parent="1" source="G7eC0wwVZ_ukL-b5JIfz-2">
          <mxGeometry relative="1" as="geometry">
            <mxPoint x="290" y="330" as="targetPoint" />
          </mxGeometry>
        </mxCell>
        <mxCell id="G7eC0wwVZ_ukL-b5JIfz-2" value="插上硬盘" style="rhombus;whiteSpace=wrap;html=1;" vertex="1" parent="1">
          <mxGeometry x="120" y="300" width="100" height="60" as="geometry" />
        </mxCell>
      </root>
    </mxGraphModel>
  </diagram>
</mxfile>
